<mxfile host="app.diagrams.net" modified="2022-04-29T14:53:36.274Z" agent="5.0 (Macintosh; Intel Mac OS X 10_14_6) AppleWebKit/537.36 (KHTML, like Gecko) Chrome/100.0.4896.127 Safari/537.36" etag="SkyrSgzP76Fbgh4JlLm5" version="17.5.0" type="github">
  <diagram id="R2lEEEUBdFMjLlhIrx00" name="Page-1">
    <mxGraphModel dx="946" dy="517" grid="1" gridSize="10" guides="1" tooltips="1" connect="1" arrows="1" fold="1" page="1" pageScale="1" pageWidth="850" pageHeight="1100" math="0" shadow="0" extFonts="Permanent Marker^https://fonts.googleapis.com/css?family=Permanent+Marker">
      <root>
        <mxCell id="0" />
        <mxCell id="1" parent="0" />
        <mxCell id="xJH54PfuBigIs4mNWsvY-1" value="PERSON" style="rounded=0;whiteSpace=wrap;html=1;" parent="1" vertex="1">
          <mxGeometry x="360" y="240" width="120" height="60" as="geometry" />
        </mxCell>
        <mxCell id="xJH54PfuBigIs4mNWsvY-2" value="LAST NAME" style="ellipse;whiteSpace=wrap;html=1;" parent="1" vertex="1">
          <mxGeometry x="170" y="140" width="120" height="80" as="geometry" />
        </mxCell>
        <mxCell id="xJH54PfuBigIs4mNWsvY-3" value="FIRST NAME" style="ellipse;whiteSpace=wrap;html=1;" parent="1" vertex="1">
          <mxGeometry x="270" y="80" width="120" height="80" as="geometry" />
        </mxCell>
        <mxCell id="xJH54PfuBigIs4mNWsvY-4" value="EMAIL" style="ellipse;whiteSpace=wrap;html=1;" parent="1" vertex="1">
          <mxGeometry x="390" y="60" width="120" height="80" as="geometry" />
        </mxCell>
        <mxCell id="xJH54PfuBigIs4mNWsvY-5" value="COMPANY NAME&lt;span style=&quot;color: rgba(0 , 0 , 0 , 0) ; font-family: monospace ; font-size: 0px&quot;&gt;%3CmxGraphModel%3E%3Croot%3E%3CmxCell%20id%3D%220%22%2F%3E%3CmxCell%20id%3D%221%22%20parent%3D%220%22%2F%3E%3CmxCell%20id%3D%222%22%20value%3D%22FIRST%20NAME%22%20style%3D%22ellipse%3BwhiteSpace%3Dwrap%3Bhtml%3D1%3B%22%20vertex%3D%221%22%20parent%3D%221%22%3E%3CmxGeometry%20x%3D%22360%22%20y%3D%22100%22%20width%3D%22120%22%20height%3D%2280%22%20as%3D%22geometry%22%2F%3E%3C%2FmxCell%3E%3C%2Froot%3E%3C%2FmxGraphModel%3E&lt;/span&gt;" style="ellipse;whiteSpace=wrap;html=1;" parent="1" vertex="1">
          <mxGeometry x="60" y="220" width="120" height="80" as="geometry" />
        </mxCell>
        <mxCell id="xJH54PfuBigIs4mNWsvY-7" value="DEPARTMENT" style="ellipse;shape=doubleEllipse;margin=3;whiteSpace=wrap;html=1;align=center;" parent="1" vertex="1">
          <mxGeometry x="710" y="230" width="130" height="80" as="geometry" />
        </mxCell>
        <mxCell id="xJH54PfuBigIs4mNWsvY-9" value="PHONE 1" style="ellipse;whiteSpace=wrap;html=1;" parent="1" vertex="1">
          <mxGeometry x="510" y="90" width="120" height="80" as="geometry" />
        </mxCell>
        <mxCell id="xJH54PfuBigIs4mNWsvY-10" value="PHONE 2" style="ellipse;whiteSpace=wrap;html=1;" parent="1" vertex="1">
          <mxGeometry x="610" y="150" width="120" height="80" as="geometry" />
        </mxCell>
        <mxCell id="xJH54PfuBigIs4mNWsvY-12" value="CITY" style="ellipse;whiteSpace=wrap;html=1;" parent="1" vertex="1">
          <mxGeometry x="280" y="540" width="120" height="80" as="geometry" />
        </mxCell>
        <mxCell id="xJH54PfuBigIs4mNWsvY-13" value="ZIP" style="ellipse;whiteSpace=wrap;html=1;" parent="1" vertex="1">
          <mxGeometry x="430" y="540" width="120" height="80" as="geometry" />
        </mxCell>
        <mxCell id="xJH54PfuBigIs4mNWsvY-14" value="STATE" style="ellipse;whiteSpace=wrap;html=1;" parent="1" vertex="1">
          <mxGeometry x="560" y="470" width="120" height="80" as="geometry" />
        </mxCell>
        <mxCell id="xJH54PfuBigIs4mNWsvY-15" value="LIVES" style="shape=rhombus;perimeter=rhombusPerimeter;whiteSpace=wrap;html=1;align=center;" parent="1" vertex="1">
          <mxGeometry x="360" y="330" width="120" height="60" as="geometry" />
        </mxCell>
        <mxCell id="xJH54PfuBigIs4mNWsvY-16" value="ADRESS" style="whiteSpace=wrap;html=1;align=center;" parent="1" vertex="1">
          <mxGeometry x="370" y="420" width="100" height="60" as="geometry" />
        </mxCell>
        <mxCell id="xJH54PfuBigIs4mNWsvY-17" value="ADRESS" style="ellipse;whiteSpace=wrap;html=1;" parent="1" vertex="1">
          <mxGeometry x="170" y="470" width="120" height="80" as="geometry" />
        </mxCell>
        <mxCell id="xJH54PfuBigIs4mNWsvY-18" value="WORKS" style="shape=rhombus;perimeter=rhombusPerimeter;whiteSpace=wrap;html=1;align=center;rotation=0;" parent="1" vertex="1">
          <mxGeometry x="540" y="240" width="120" height="60" as="geometry" />
        </mxCell>
        <mxCell id="xJH54PfuBigIs4mNWsvY-21" value="" style="endArrow=none;html=1;rounded=0;entryX=0.5;entryY=1;entryDx=0;entryDy=0;exitX=0.5;exitY=0;exitDx=0;exitDy=0;" parent="1" source="xJH54PfuBigIs4mNWsvY-1" target="xJH54PfuBigIs4mNWsvY-4" edge="1">
          <mxGeometry relative="1" as="geometry">
            <mxPoint x="390" y="200" as="sourcePoint" />
            <mxPoint x="450" y="200" as="targetPoint" />
            <Array as="points" />
          </mxGeometry>
        </mxCell>
        <mxCell id="xJH54PfuBigIs4mNWsvY-22" value="1" style="resizable=0;html=1;align=right;verticalAlign=bottom;" parent="xJH54PfuBigIs4mNWsvY-21" connectable="0" vertex="1">
          <mxGeometry x="1" relative="1" as="geometry" />
        </mxCell>
        <mxCell id="xJH54PfuBigIs4mNWsvY-24" value="" style="endArrow=none;html=1;rounded=0;entryX=0;entryY=1;entryDx=0;entryDy=0;exitX=0.5;exitY=0;exitDx=0;exitDy=0;" parent="1" source="xJH54PfuBigIs4mNWsvY-1" target="xJH54PfuBigIs4mNWsvY-9" edge="1">
          <mxGeometry relative="1" as="geometry">
            <mxPoint x="430" y="250" as="sourcePoint" />
            <mxPoint x="460" y="150" as="targetPoint" />
            <Array as="points" />
          </mxGeometry>
        </mxCell>
        <mxCell id="xJH54PfuBigIs4mNWsvY-25" value="1" style="resizable=0;html=1;align=right;verticalAlign=bottom;" parent="xJH54PfuBigIs4mNWsvY-24" connectable="0" vertex="1">
          <mxGeometry x="1" relative="1" as="geometry" />
        </mxCell>
        <mxCell id="xJH54PfuBigIs4mNWsvY-28" value="" style="endArrow=none;html=1;rounded=0;dashed=1;dashPattern=1 2;entryX=0;entryY=0.5;entryDx=0;entryDy=0;exitX=0.5;exitY=0;exitDx=0;exitDy=0;" parent="1" source="xJH54PfuBigIs4mNWsvY-1" target="xJH54PfuBigIs4mNWsvY-10" edge="1">
          <mxGeometry relative="1" as="geometry">
            <mxPoint x="460" y="219" as="sourcePoint" />
            <mxPoint x="620" y="219" as="targetPoint" />
          </mxGeometry>
        </mxCell>
        <mxCell id="xJH54PfuBigIs4mNWsvY-29" value="1" style="resizable=0;html=1;align=right;verticalAlign=bottom;" parent="xJH54PfuBigIs4mNWsvY-28" connectable="0" vertex="1">
          <mxGeometry x="1" relative="1" as="geometry" />
        </mxCell>
        <mxCell id="xJH54PfuBigIs4mNWsvY-30" value="" style="endArrow=none;html=1;rounded=0;entryX=0.5;entryY=1;entryDx=0;entryDy=0;" parent="1" target="xJH54PfuBigIs4mNWsvY-3" edge="1">
          <mxGeometry relative="1" as="geometry">
            <mxPoint x="420" y="240" as="sourcePoint" />
            <mxPoint x="500" y="320" as="targetPoint" />
          </mxGeometry>
        </mxCell>
        <mxCell id="xJH54PfuBigIs4mNWsvY-31" value="1" style="resizable=0;html=1;align=right;verticalAlign=bottom;" parent="xJH54PfuBigIs4mNWsvY-30" connectable="0" vertex="1">
          <mxGeometry x="1" relative="1" as="geometry" />
        </mxCell>
        <mxCell id="xJH54PfuBigIs4mNWsvY-32" value="" style="endArrow=none;html=1;rounded=0;entryX=1;entryY=1;entryDx=0;entryDy=0;exitX=0;exitY=0;exitDx=0;exitDy=0;" parent="1" source="xJH54PfuBigIs4mNWsvY-1" target="xJH54PfuBigIs4mNWsvY-2" edge="1">
          <mxGeometry relative="1" as="geometry">
            <mxPoint x="340" y="320" as="sourcePoint" />
            <mxPoint x="500" y="320" as="targetPoint" />
          </mxGeometry>
        </mxCell>
        <mxCell id="xJH54PfuBigIs4mNWsvY-33" value="1" style="resizable=0;html=1;align=right;verticalAlign=bottom;" parent="xJH54PfuBigIs4mNWsvY-32" connectable="0" vertex="1">
          <mxGeometry x="1" relative="1" as="geometry" />
        </mxCell>
        <mxCell id="xJH54PfuBigIs4mNWsvY-34" value="" style="endArrow=none;html=1;rounded=0;entryX=1;entryY=0.5;entryDx=0;entryDy=0;exitX=0;exitY=0.5;exitDx=0;exitDy=0;" parent="1" source="xJH54PfuBigIs4mNWsvY-1" target="xJH54PfuBigIs4mNWsvY-5" edge="1">
          <mxGeometry relative="1" as="geometry">
            <mxPoint x="340" y="320" as="sourcePoint" />
            <mxPoint x="500" y="320" as="targetPoint" />
          </mxGeometry>
        </mxCell>
        <mxCell id="xJH54PfuBigIs4mNWsvY-35" value="1" style="resizable=0;html=1;align=right;verticalAlign=bottom;" parent="xJH54PfuBigIs4mNWsvY-34" connectable="0" vertex="1">
          <mxGeometry x="1" relative="1" as="geometry">
            <mxPoint x="10" as="offset" />
          </mxGeometry>
        </mxCell>
        <mxCell id="xJH54PfuBigIs4mNWsvY-36" value="" style="endArrow=none;html=1;rounded=0;entryX=0;entryY=0.5;entryDx=0;entryDy=0;exitX=1;exitY=0.5;exitDx=0;exitDy=0;" parent="1" source="xJH54PfuBigIs4mNWsvY-18" target="xJH54PfuBigIs4mNWsvY-7" edge="1">
          <mxGeometry relative="1" as="geometry">
            <mxPoint x="340" y="320" as="sourcePoint" />
            <mxPoint x="500" y="320" as="targetPoint" />
          </mxGeometry>
        </mxCell>
        <mxCell id="xJH54PfuBigIs4mNWsvY-37" value="1:N" style="resizable=0;html=1;align=right;verticalAlign=bottom;" parent="xJH54PfuBigIs4mNWsvY-36" connectable="0" vertex="1">
          <mxGeometry x="1" relative="1" as="geometry">
            <mxPoint x="1" y="-2" as="offset" />
          </mxGeometry>
        </mxCell>
        <mxCell id="xJH54PfuBigIs4mNWsvY-41" value="" style="endArrow=none;html=1;rounded=0;exitX=0.5;exitY=1;exitDx=0;exitDy=0;entryX=0.5;entryY=0;entryDx=0;entryDy=0;" parent="1" source="xJH54PfuBigIs4mNWsvY-1" target="xJH54PfuBigIs4mNWsvY-15" edge="1">
          <mxGeometry relative="1" as="geometry">
            <mxPoint x="340" y="320" as="sourcePoint" />
            <mxPoint x="500" y="320" as="targetPoint" />
          </mxGeometry>
        </mxCell>
        <mxCell id="xJH54PfuBigIs4mNWsvY-42" value="" style="endArrow=none;html=1;rounded=0;entryX=0.5;entryY=0;entryDx=0;entryDy=0;exitX=0.5;exitY=1;exitDx=0;exitDy=0;" parent="1" source="xJH54PfuBigIs4mNWsvY-15" target="xJH54PfuBigIs4mNWsvY-16" edge="1">
          <mxGeometry relative="1" as="geometry">
            <mxPoint x="670" y="280" as="sourcePoint" />
            <mxPoint x="720" y="280" as="targetPoint" />
          </mxGeometry>
        </mxCell>
        <mxCell id="xJH54PfuBigIs4mNWsvY-43" value="1" style="resizable=0;html=1;align=right;verticalAlign=bottom;" parent="xJH54PfuBigIs4mNWsvY-42" connectable="0" vertex="1">
          <mxGeometry x="1" relative="1" as="geometry">
            <mxPoint x="-1" as="offset" />
          </mxGeometry>
        </mxCell>
        <mxCell id="xJH54PfuBigIs4mNWsvY-44" value="1:N" style="resizable=0;html=1;align=right;verticalAlign=bottom;" parent="1" connectable="0" vertex="1">
          <mxGeometry x="420" y="320" as="geometry" />
        </mxCell>
        <mxCell id="xJH54PfuBigIs4mNWsvY-45" value="" style="endArrow=none;html=1;rounded=0;exitX=0;exitY=0.5;exitDx=0;exitDy=0;" parent="1" source="xJH54PfuBigIs4mNWsvY-16" target="xJH54PfuBigIs4mNWsvY-17" edge="1">
          <mxGeometry relative="1" as="geometry">
            <mxPoint x="360" y="480" as="sourcePoint" />
            <mxPoint x="500" y="490" as="targetPoint" />
          </mxGeometry>
        </mxCell>
        <mxCell id="xJH54PfuBigIs4mNWsvY-46" value="1" style="resizable=0;html=1;align=right;verticalAlign=bottom;" parent="xJH54PfuBigIs4mNWsvY-45" connectable="0" vertex="1">
          <mxGeometry x="1" relative="1" as="geometry" />
        </mxCell>
        <mxCell id="xJH54PfuBigIs4mNWsvY-47" value="" style="endArrow=none;html=1;rounded=0;exitX=0.5;exitY=1;exitDx=0;exitDy=0;entryX=0.5;entryY=0;entryDx=0;entryDy=0;" parent="1" source="xJH54PfuBigIs4mNWsvY-16" target="xJH54PfuBigIs4mNWsvY-12" edge="1">
          <mxGeometry relative="1" as="geometry">
            <mxPoint x="380" y="460" as="sourcePoint" />
            <mxPoint x="290.4707085225896" y="498.3696963474616" as="targetPoint" />
          </mxGeometry>
        </mxCell>
        <mxCell id="xJH54PfuBigIs4mNWsvY-48" value="1" style="resizable=0;html=1;align=right;verticalAlign=bottom;" parent="xJH54PfuBigIs4mNWsvY-47" connectable="0" vertex="1">
          <mxGeometry x="1" relative="1" as="geometry" />
        </mxCell>
        <mxCell id="xJH54PfuBigIs4mNWsvY-49" value="" style="endArrow=none;html=1;rounded=0;exitX=0.5;exitY=1;exitDx=0;exitDy=0;entryX=0.5;entryY=0;entryDx=0;entryDy=0;" parent="1" source="xJH54PfuBigIs4mNWsvY-16" target="xJH54PfuBigIs4mNWsvY-13" edge="1">
          <mxGeometry relative="1" as="geometry">
            <mxPoint x="430" y="490" as="sourcePoint" />
            <mxPoint x="350" y="550" as="targetPoint" />
          </mxGeometry>
        </mxCell>
        <mxCell id="xJH54PfuBigIs4mNWsvY-50" value="1" style="resizable=0;html=1;align=right;verticalAlign=bottom;" parent="xJH54PfuBigIs4mNWsvY-49" connectable="0" vertex="1">
          <mxGeometry x="1" relative="1" as="geometry" />
        </mxCell>
        <mxCell id="xJH54PfuBigIs4mNWsvY-53" value="" style="endArrow=none;html=1;rounded=0;exitX=1;exitY=0.5;exitDx=0;exitDy=0;entryX=0;entryY=0.5;entryDx=0;entryDy=0;" parent="1" source="xJH54PfuBigIs4mNWsvY-16" target="xJH54PfuBigIs4mNWsvY-14" edge="1">
          <mxGeometry relative="1" as="geometry">
            <mxPoint x="430" y="490" as="sourcePoint" />
            <mxPoint x="530" y="500" as="targetPoint" />
          </mxGeometry>
        </mxCell>
        <mxCell id="xJH54PfuBigIs4mNWsvY-54" value="1" style="resizable=0;html=1;align=right;verticalAlign=bottom;" parent="xJH54PfuBigIs4mNWsvY-53" connectable="0" vertex="1">
          <mxGeometry x="1" relative="1" as="geometry" />
        </mxCell>
        <mxCell id="xJH54PfuBigIs4mNWsvY-57" value="" style="endArrow=none;html=1;rounded=0;entryX=1;entryY=0.5;entryDx=0;entryDy=0;exitX=0;exitY=0.5;exitDx=0;exitDy=0;" parent="1" source="xJH54PfuBigIs4mNWsvY-18" target="xJH54PfuBigIs4mNWsvY-1" edge="1">
          <mxGeometry relative="1" as="geometry">
            <mxPoint x="340" y="230" as="sourcePoint" />
            <mxPoint x="500" y="230" as="targetPoint" />
          </mxGeometry>
        </mxCell>
        <mxCell id="xJH54PfuBigIs4mNWsvY-58" value="N" style="resizable=0;html=1;align=right;verticalAlign=bottom;" parent="xJH54PfuBigIs4mNWsvY-57" connectable="0" vertex="1">
          <mxGeometry x="1" relative="1" as="geometry">
            <mxPoint x="14" as="offset" />
          </mxGeometry>
        </mxCell>
      </root>
    </mxGraphModel>
  </diagram>
</mxfile>
